<mxfile host="app.diagrams.net" modified="2023-05-31T23:33:37.048Z" agent="Mozilla/5.0 (X11; Linux x86_64) AppleWebKit/537.36 (KHTML, like Gecko) Chrome/113.0.0.0 Safari/537.36" etag="RusItofqOQeerbmoyEC7" version="21.3.6" type="github">
  <diagram name="PÃ¡gina-1" id="F__T1KYYX4P7ADmhiMOF">
    <mxGraphModel dx="1046" dy="495" grid="1" gridSize="10" guides="1" tooltips="1" connect="1" arrows="1" fold="1" page="1" pageScale="1" pageWidth="827" pageHeight="1169" math="0" shadow="0">
      <root>
        <mxCell id="0" />
        <mxCell id="1" parent="0" />
        <mxCell id="25SvDvUmrNRj7gzEyqba-1" value="AWS Cloud" style="points=[[0,0],[0.25,0],[0.5,0],[0.75,0],[1,0],[1,0.25],[1,0.5],[1,0.75],[1,1],[0.75,1],[0.5,1],[0.25,1],[0,1],[0,0.75],[0,0.5],[0,0.25]];outlineConnect=0;gradientColor=none;html=1;whiteSpace=wrap;fontSize=12;fontStyle=0;container=1;pointerEvents=0;collapsible=0;recursiveResize=0;shape=mxgraph.aws4.group;grIcon=mxgraph.aws4.group_aws_cloud_alt;strokeColor=#232F3E;fillColor=none;verticalAlign=top;align=left;spacingLeft=30;fontColor=#232F3E;dashed=0;" parent="1" vertex="1">
          <mxGeometry x="170" y="80" width="650" height="440" as="geometry" />
        </mxCell>
        <mxCell id="25SvDvUmrNRj7gzEyqba-9" value="Region" style="points=[[0,0],[0.25,0],[0.5,0],[0.75,0],[1,0],[1,0.25],[1,0.5],[1,0.75],[1,1],[0.75,1],[0.5,1],[0.25,1],[0,1],[0,0.75],[0,0.5],[0,0.25]];outlineConnect=0;gradientColor=none;html=1;whiteSpace=wrap;fontSize=12;fontStyle=0;container=1;pointerEvents=0;collapsible=0;recursiveResize=0;shape=mxgraph.aws4.group;grIcon=mxgraph.aws4.group_region;strokeColor=#147EBA;fillColor=none;verticalAlign=top;align=left;spacingLeft=30;fontColor=#147EBA;dashed=1;" parent="25SvDvUmrNRj7gzEyqba-1" vertex="1">
          <mxGeometry x="370" y="169.60000000000002" width="270" height="170" as="geometry" />
        </mxCell>
        <mxCell id="OENqF1b2ZxtWXLR4_BLt-1" value="" style="sketch=0;points=[[0,0,0],[0.25,0,0],[0.5,0,0],[0.75,0,0],[1,0,0],[0,1,0],[0.25,1,0],[0.5,1,0],[0.75,1,0],[1,1,0],[0,0.25,0],[0,0.5,0],[0,0.75,0],[1,0.25,0],[1,0.5,0],[1,0.75,0]];outlineConnect=0;fontColor=#232F3E;gradientColor=#60A337;gradientDirection=north;fillColor=#277116;strokeColor=#ffffff;dashed=0;verticalLabelPosition=bottom;verticalAlign=top;align=center;html=1;fontSize=12;fontStyle=0;aspect=fixed;shape=mxgraph.aws4.resourceIcon;resIcon=mxgraph.aws4.s3;" vertex="1" parent="25SvDvUmrNRj7gzEyqba-9">
          <mxGeometry x="167.75" y="29.5" width="78" height="78" as="geometry" />
        </mxCell>
        <mxCell id="OENqF1b2ZxtWXLR4_BLt-2" value="Simple Storage Service (&lt;span style=&quot;background-color: initial;&quot;&gt;S3)&lt;/span&gt;" style="text;strokeColor=none;fillColor=none;align=center;verticalAlign=top;spacingLeft=4;spacingRight=4;overflow=hidden;rotatable=0;points=[[0,0.5],[1,0.5]];portConstraint=eastwest;whiteSpace=wrap;html=1;" vertex="1" parent="25SvDvUmrNRj7gzEyqba-9">
          <mxGeometry x="160" y="103.5" width="93.5" height="33" as="geometry" />
        </mxCell>
        <mxCell id="OENqF1b2ZxtWXLR4_BLt-33" style="edgeStyle=orthogonalEdgeStyle;rounded=0;orthogonalLoop=1;jettySize=auto;html=1;" edge="1" parent="25SvDvUmrNRj7gzEyqba-9" source="OENqF1b2ZxtWXLR4_BLt-25" target="OENqF1b2ZxtWXLR4_BLt-1">
          <mxGeometry relative="1" as="geometry">
            <Array as="points">
              <mxPoint x="160" y="74" />
              <mxPoint x="160" y="74" />
            </Array>
          </mxGeometry>
        </mxCell>
        <mxCell id="OENqF1b2ZxtWXLR4_BLt-25" value="" style="sketch=0;outlineConnect=0;fontColor=#232F3E;gradientColor=none;fillColor=#3F8624;strokeColor=none;dashed=0;verticalLabelPosition=bottom;verticalAlign=top;align=center;html=1;fontSize=12;fontStyle=0;aspect=fixed;pointerEvents=1;shape=mxgraph.aws4.bucket;" vertex="1" parent="25SvDvUmrNRj7gzEyqba-9">
          <mxGeometry x="37.13" y="34.5" width="75" height="78" as="geometry" />
        </mxCell>
        <mxCell id="OENqF1b2ZxtWXLR4_BLt-27" value="Bucket" style="text;strokeColor=none;fillColor=none;align=center;verticalAlign=top;spacingLeft=4;spacingRight=4;overflow=hidden;rotatable=0;points=[[0,0.5],[1,0.5]];portConstraint=eastwest;whiteSpace=wrap;html=1;" vertex="1" parent="25SvDvUmrNRj7gzEyqba-9">
          <mxGeometry x="50.88" y="107.5" width="47.5" height="29" as="geometry" />
        </mxCell>
        <mxCell id="OENqF1b2ZxtWXLR4_BLt-3" value="Certificate&lt;br&gt;Manager" style="text;strokeColor=none;fillColor=none;align=center;verticalAlign=top;spacingLeft=4;spacingRight=4;overflow=hidden;rotatable=0;points=[[0,0.5],[1,0.5]];portConstraint=eastwest;whiteSpace=wrap;html=1;" vertex="1" parent="25SvDvUmrNRj7gzEyqba-1">
          <mxGeometry x="210" y="134.6" width="100" height="35" as="geometry" />
        </mxCell>
        <mxCell id="OENqF1b2ZxtWXLR4_BLt-5" value="Amazon&lt;br&gt;&lt;div style=&quot;&quot;&gt;&lt;span style=&quot;background-color: initial;&quot;&gt;Cloudfront&lt;/span&gt;&lt;/div&gt;" style="text;strokeColor=none;fillColor=none;align=center;verticalAlign=top;spacingLeft=4;spacingRight=4;overflow=hidden;rotatable=0;points=[[0,0.5],[1,0.5]];portConstraint=eastwest;whiteSpace=wrap;html=1;" vertex="1" parent="25SvDvUmrNRj7gzEyqba-1">
          <mxGeometry x="210" y="348" width="100" height="40" as="geometry" />
        </mxCell>
        <mxCell id="OENqF1b2ZxtWXLR4_BLt-19" value="" style="edgeStyle=orthogonalEdgeStyle;rounded=0;orthogonalLoop=1;jettySize=auto;html=1;entryX=0;entryY=0.5;entryDx=0;entryDy=0;entryPerimeter=0;" edge="1" parent="25SvDvUmrNRj7gzEyqba-1" source="OENqF1b2ZxtWXLR4_BLt-10" target="OENqF1b2ZxtWXLR4_BLt-12">
          <mxGeometry relative="1" as="geometry" />
        </mxCell>
        <mxCell id="OENqF1b2ZxtWXLR4_BLt-10" value="" style="sketch=0;points=[[0,0,0],[0.25,0,0],[0.5,0,0],[0.75,0,0],[1,0,0],[0,1,0],[0.25,1,0],[0.5,1,0],[0.75,1,0],[1,1,0],[0,0.25,0],[0,0.5,0],[0,0.75,0],[1,0.25,0],[1,0.5,0],[1,0.75,0]];outlineConnect=0;fontColor=#232F3E;gradientColor=#945DF2;gradientDirection=north;fillColor=#5A30B5;strokeColor=#ffffff;dashed=0;verticalLabelPosition=bottom;verticalAlign=top;align=center;html=1;fontSize=12;fontStyle=0;aspect=fixed;shape=mxgraph.aws4.resourceIcon;resIcon=mxgraph.aws4.route_53;" vertex="1" parent="25SvDvUmrNRj7gzEyqba-1">
          <mxGeometry x="79" y="178.4" width="78" height="78" as="geometry" />
        </mxCell>
        <mxCell id="OENqF1b2ZxtWXLR4_BLt-7" value="Route 53" style="text;strokeColor=none;fillColor=none;align=center;verticalAlign=top;spacingLeft=4;spacingRight=4;overflow=hidden;rotatable=0;points=[[0,0.5],[1,0.5]];portConstraint=eastwest;whiteSpace=wrap;html=1;" vertex="1" parent="25SvDvUmrNRj7gzEyqba-1">
          <mxGeometry x="68" y="254" width="100" height="26" as="geometry" />
        </mxCell>
        <mxCell id="OENqF1b2ZxtWXLR4_BLt-24" value="" style="edgeStyle=orthogonalEdgeStyle;rounded=0;orthogonalLoop=1;jettySize=auto;html=1;" edge="1" parent="25SvDvUmrNRj7gzEyqba-1" source="OENqF1b2ZxtWXLR4_BLt-12" target="OENqF1b2ZxtWXLR4_BLt-3">
          <mxGeometry relative="1" as="geometry">
            <Array as="points">
              <mxPoint x="259" y="254.6" />
              <mxPoint x="259" y="254.6" />
            </Array>
          </mxGeometry>
        </mxCell>
        <mxCell id="OENqF1b2ZxtWXLR4_BLt-30" style="edgeStyle=orthogonalEdgeStyle;rounded=0;orthogonalLoop=1;jettySize=auto;html=1;" edge="1" parent="25SvDvUmrNRj7gzEyqba-1" source="OENqF1b2ZxtWXLR4_BLt-12" target="OENqF1b2ZxtWXLR4_BLt-25">
          <mxGeometry relative="1" as="geometry" />
        </mxCell>
        <mxCell id="OENqF1b2ZxtWXLR4_BLt-12" value="" style="sketch=0;points=[[0,0,0],[0.25,0,0],[0.5,0,0],[0.75,0,0],[1,0,0],[0,1,0],[0.25,1,0],[0.5,1,0],[0.75,1,0],[1,1,0],[0,0.25,0],[0,0.5,0],[0,0.75,0],[1,0.25,0],[1,0.5,0],[1,0.75,0]];outlineConnect=0;fontColor=#232F3E;gradientColor=#945DF2;gradientDirection=north;fillColor=#5A30B5;strokeColor=#ffffff;dashed=0;verticalLabelPosition=bottom;verticalAlign=top;align=center;html=1;fontSize=12;fontStyle=0;aspect=fixed;shape=mxgraph.aws4.resourceIcon;resIcon=mxgraph.aws4.cloudfront;" vertex="1" parent="25SvDvUmrNRj7gzEyqba-1">
          <mxGeometry x="221" y="274.6" width="78" height="78" as="geometry" />
        </mxCell>
        <mxCell id="OENqF1b2ZxtWXLR4_BLt-14" value="" style="sketch=0;points=[[0,0,0],[0.25,0,0],[0.5,0,0],[0.75,0,0],[1,0,0],[0,1,0],[0.25,1,0],[0.5,1,0],[0.75,1,0],[1,1,0],[0,0.25,0],[0,0.5,0],[0,0.75,0],[1,0.25,0],[1,0.5,0],[1,0.75,0]];outlineConnect=0;fontColor=#232F3E;gradientColor=#F54749;gradientDirection=north;fillColor=#C7131F;strokeColor=#ffffff;dashed=0;verticalLabelPosition=bottom;verticalAlign=top;align=center;html=1;fontSize=12;fontStyle=0;aspect=fixed;shape=mxgraph.aws4.resourceIcon;resIcon=mxgraph.aws4.certificate_manager_3;" vertex="1" parent="25SvDvUmrNRj7gzEyqba-1">
          <mxGeometry x="221" y="60.00000000000001" width="78" height="78" as="geometry" />
        </mxCell>
        <mxCell id="OENqF1b2ZxtWXLR4_BLt-11" style="edgeStyle=orthogonalEdgeStyle;rounded=0;orthogonalLoop=1;jettySize=auto;html=1;entryX=0;entryY=0.5;entryDx=0;entryDy=0;entryPerimeter=0;" edge="1" parent="1" source="25SvDvUmrNRj7gzEyqba-3" target="OENqF1b2ZxtWXLR4_BLt-10">
          <mxGeometry relative="1" as="geometry" />
        </mxCell>
        <mxCell id="25SvDvUmrNRj7gzEyqba-3" value="devices" style="sketch=0;outlineConnect=0;gradientColor=none;fontColor=#545B64;strokeColor=none;fillColor=#879196;dashed=0;verticalLabelPosition=bottom;verticalAlign=top;align=center;html=1;fontSize=12;fontStyle=0;aspect=fixed;shape=mxgraph.aws4.illustration_devices;pointerEvents=1" parent="1" vertex="1">
          <mxGeometry x="20" y="130" width="134.79" height="98.4" as="geometry" />
        </mxCell>
      </root>
    </mxGraphModel>
  </diagram>
</mxfile>
